<svg width="100" height="72" viewBox="0 0 100 72" fill="none" xmlns="http://www.w3.org/2000/svg">
<path d="M68.4277 24.5073C67.5318 24.7552 66.6529 25.0031 65.7882 25.2798C56.3401 28.2072 48.1409 32.8493 41.9418 38.703L33.1911 34.3078L27.1324 39.2369L44.991 51.4299L47.1556 52.9173C47.408 52.2209 47.6816 51.5348 47.9722 50.8488C51.9258 41.7919 60.0456 34.0599 70.7001 28.8449C71.4372 28.5014 72.1602 28.092 72.9214 27.767L68.4277 24.5073ZM45.8699 49.4087L39.5872 45.1184L39.3888 44.9857L37.4169 43.6321L37.3007 43.555L30.811 39.1217L33.6122 36.8433L40.3244 40.2182L40.3754 40.247L40.4137 40.2624L42.5429 41.3332L42.6903 41.4093C42.7158 41.3805 42.7413 41.362 42.7668 41.3332C43.2687 40.8189 43.6613 40.3231 44.1731 39.8273C44.1872 39.8181 44.2 39.7985 44.2113 39.7893C50.3338 34.0404 58.4154 29.5115 67.8097 26.7476L68.8204 27.481C58.217 32.7536 50.073 40.4188 45.8699 49.4087Z" fill="#284D39"/>
<path d="M49.6164 72L41.3222 66.2645L30.6295 69.2608L25.9855 61.6564L14.5372 61.4548L14.2608 53.1437L3.77925 49.7771L7.9058 42.0194L0 36L7.9058 29.9806L3.77925 22.2229L14.2608 18.8563L14.5372 10.5442L25.9855 10.3436L30.6295 2.73916L41.3222 5.73548L49.6164 0L57.9092 5.73548L68.602 2.73916L73.2473 10.3436L84.6942 10.5442L84.9721 18.8563L95.4508 22.2229L91.327 29.9806L99.23 36L91.327 42.0194L95.4508 49.7771L84.9721 53.1437L84.6942 61.4548L73.2473 61.6564L68.602 69.2608L57.9092 66.2645L49.6164 72ZM41.9303 64.05L49.6164 69.3658L57.3011 64.05L67.2142 66.8272L71.5193 59.7792L82.127 59.593L82.385 51.8898L92.0996 48.768L88.2764 41.5781L95.6024 35.999L88.2764 30.4198L92.0996 23.2299L82.385 20.1081L82.127 12.4039L71.5193 12.2188L67.2142 5.17078L57.3011 7.948L49.6164 2.63219L41.9303 7.948L32.0187 5.17078L27.7135 12.2188L17.1044 12.4039L16.8464 20.1081L7.13322 23.2299L10.9564 30.4198L3.6304 35.999L10.9564 41.5781L7.13322 48.768L16.8464 51.8898L17.1044 59.593L27.7135 59.7792L32.0187 66.8272L41.9303 64.05Z" fill="#284D39"/>
<path d="M50.0276 64.0612C30.7642 64.0612 15.0916 52.69 15.0916 38.7124C15.0916 24.7347 30.7642 13.3635 50.0276 13.3635C69.2896 13.3635 84.9622 24.7347 84.9622 38.7124C84.9622 52.69 69.2881 64.0612 50.0276 64.0612ZM50.0276 15.2695C32.2144 15.2695 17.7211 25.7859 17.7211 38.7124C17.7211 51.6388 32.213 62.1542 50.0276 62.1542C67.8422 62.1542 82.3326 51.6388 82.3326 38.7124C82.3326 25.7859 67.8408 15.2695 50.0276 15.2695Z" fill="#284D39"/>
</svg>
