<svg width="101" height="84" viewBox="0 0 101 84" fill="none" xmlns="http://www.w3.org/2000/svg">
<path d="M99.5839 40.1022C99.5839 38.6169 99.2843 37.2967 98.5352 35.9764L89.6959 19.9686C88.3475 17.6582 86.1002 16.1729 83.5533 16.1729H70.8187V1.65029C70.8187 0.660118 70.2194 0 69.3205 0H15.5355C14.6365 0 14.0373 0.660118 14.0373 1.65029V11.222H8.19432C7.29541 11.222 6.69613 11.8821 6.69613 12.8723C6.69613 13.8625 7.29541 14.5226 8.19432 14.5226H14.0373V22.1139H5.19794C4.29903 22.1139 3.69975 22.7741 3.69975 23.7642C3.69975 24.7544 4.29903 25.4145 5.19794 25.4145H14.0373V33.0059H2.20156C1.30265 33.0059 0.703369 33.666 0.703369 34.6562C0.703369 35.6464 1.30265 36.3065 2.20156 36.3065H14.0373C14.0373 63.3713 14.0373 43.2377 14.0373 70.3026C14.0373 71.2927 14.6365 71.9528 15.5355 71.9528H27.6708C27.6708 72.2829 27.6708 72.613 27.6708 72.778C27.6708 79.0491 32.3152 84 38.0083 84C43.7014 84 48.3458 78.8841 48.3458 72.778C48.3458 72.4479 48.3458 72.1179 48.3458 71.9528H70.3692C70.3692 72.2829 70.3692 72.613 70.3692 72.778C70.3692 79.0491 75.0136 84 80.7067 84C86.3998 84 91.0442 78.8841 91.0442 72.778C91.0442 72.4479 91.0442 72.1179 91.0442 71.9528H98.5352C99.4341 71.9528 100.033 71.2927 100.033 70.3026C99.5839 41.9175 99.5839 68.4872 99.5839 40.1022ZM83.5533 19.6385C85.0515 19.6385 86.3998 20.4637 87.1489 21.7839L95.9883 37.7917C96.4377 38.4519 96.5875 39.277 96.5875 40.1022V53.1395H70.8187V19.6385H83.5533ZM17.0336 47.3635H67.8223V53.1395H17.0336V47.3635ZM43.8512 33.0059H17.0336V25.4145H48.3458C49.2447 25.4145 49.844 24.7544 49.844 23.7642C49.844 22.7741 49.2447 22.1139 48.3458 22.1139H17.0336V14.5226H52.8404C53.7393 14.5226 54.3386 13.8625 54.3386 12.8723C54.3386 11.8821 53.7393 11.222 52.8404 11.222H17.0336V3.30059H67.8223V44.0629H17.0336V36.3065H43.8512C44.7502 36.3065 45.3494 35.6464 45.3494 34.6562C45.3494 33.831 44.7502 33.0059 43.8512 33.0059ZM37.8585 80.8644C33.8134 80.8644 30.5174 77.2338 30.5174 72.943C30.5174 68.4872 33.8134 65.0216 37.8585 65.0216C41.9036 65.0216 45.1996 68.6523 45.1996 72.943C45.1996 77.2338 41.9036 80.8644 37.8585 80.8644ZM80.4071 80.8644C76.362 80.8644 73.0659 77.2338 73.0659 72.943C73.0659 68.4872 76.362 65.0216 80.4071 65.0216C84.4522 65.0216 87.7482 68.6523 87.7482 72.943C87.5984 77.2338 84.3024 80.8644 80.4071 80.8644ZM96.5875 68.6523H89.8457C88.3475 64.5265 84.602 61.556 80.2573 61.556C75.9125 61.556 72.167 64.5265 70.6688 68.6523H47.4469C45.9487 64.5265 42.2032 61.556 37.8585 61.556C33.5137 61.556 29.7683 64.5265 28.2701 68.6523H16.8838V56.4401H96.5875V68.6523Z" fill="#284D39"/>
<path d="M76.8115 40.4322H89.9955C90.8944 40.4322 91.4937 39.772 91.4937 38.7819C91.4937 38.2868 91.3439 37.9567 91.0443 37.6267L84.602 26.2396C83.853 25.0844 82.8042 24.2593 81.4559 24.2593H76.6616C75.7627 24.2593 75.1635 24.9194 75.1635 25.9096V38.7819C75.3133 39.772 75.9125 40.4322 76.8115 40.4322ZM78.3096 27.7249H81.6057C81.9053 27.7249 82.0551 27.8899 82.2049 28.055L87.2988 37.1316H78.3096V27.7249Z" fill="#284D39"/>
</svg>
