<svg width="27" height="24" viewBox="0 0 27 24" fill="none" xmlns="http://www.w3.org/2000/svg">
<path d="M13.5 3.92587C14.2243 2.74184 14.9775 1.82539 15.8945 1.17332C16.9945 0.391137 18.3037 6.42613e-06 20.0391 6.42613e-06C21.9603 6.42613e-06 23.7006 0.693002 24.9605 1.81293C26.2204 2.93285 27 4.47976 27 6.18751C27 12.1553 20.3991 18.0228 13.7983 23.8902L13.7983 23.8902C13.6336 24.0366 13.3664 24.0366 13.2017 23.8902L13.2002 23.8888C6.59986 18.0218 0 12.1548 0 6.18751C0 4.47976 0.779619 2.93285 2.03953 1.81292C3.29944 0.692996 5.03972 0 6.96093 0C8.69628 0 10.0055 0.391129 11.1055 1.17331C12.0225 1.82537 12.7757 2.74184 13.5 3.92586L13.5 3.92588L13.5 3.92587ZM16.4185 1.75634C15.4584 2.43915 14.6785 3.47928 13.8927 4.87132C13.856 4.95465 13.7858 5.02662 13.6887 5.06978C13.4803 5.16239 13.2269 5.0873 13.1227 4.90207L13.1243 4.90137C12.3328 3.49421 11.5486 2.44406 10.5815 1.75635C9.63806 1.08548 8.49512 0.750009 6.96096 0.750009C5.27265 0.750009 3.74332 1.35903 2.63613 2.34321C1.52893 3.32738 0.843784 4.6868 0.843784 6.18751C0.843784 11.7579 7.1237 17.4256 13.5 23.0947C19.8763 17.4256 26.1562 11.7579 26.1562 6.18751C26.1562 4.68679 25.4711 3.32738 24.3639 2.34321C23.2567 1.35903 21.7274 0.750009 20.0391 0.750009C18.5049 0.750009 17.362 1.08548 16.4185 1.75635L16.4185 1.75634Z" fill="black"/>
</svg>
